<svg width="65" height="64" viewBox="0 0 65 64" fill="none" xmlns="http://www.w3.org/2000/svg">
<circle cx="32.4344" cy="32" r="32" fill="white" fill-opacity="0.12"/>
<path d="M43.763 29.3381C44.079 29.0222 44.079 28.5098 43.763 28.1938L42.5487 26.9794C42.274 26.7048 41.8428 26.6641 41.5216 26.8823L38.9683 28.6178L40.6932 26.0471C40.9086 25.7261 40.8668 25.2975 40.5934 25.0241L37.9592 22.3899C37.716 22.1468 37.3458 22.0838 37.036 22.2331L36.5805 22.4524L36.7986 21.9685C36.9369 21.6618 36.871 21.3016 36.6331 21.0637L35.8063 20.237C35.4903 19.921 34.9779 19.921 34.6619 20.237L28.2391 26.6597L37.3403 35.7609L43.763 29.3381Z" fill="#01C7A5"/>
<path d="M27.0432 27.8557L25.1839 29.7149C25.0321 29.8667 24.9468 30.0725 24.9468 30.2871C24.9468 30.5017 25.0321 30.7075 25.1839 30.8592L26.9476 32.6229C27.2874 32.9627 27.4522 33.4317 27.3997 33.9095C27.3474 34.387 27.0845 34.8091 26.6787 35.0679C21.4963 38.3714 21.0132 38.8545 20.8545 39.0133C19.7152 40.1525 19.7152 42.0062 20.8545 43.1455C21.9949 44.2859 23.8487 44.2837 24.9867 43.1455C25.1455 42.9868 25.6288 42.5035 28.9321 37.3213C29.1901 36.9164 29.6122 36.6542 30.0899 36.6017C30.569 36.5494 31.0379 36.7134 31.3769 37.0524L33.1406 38.8161C33.4566 39.132 33.969 39.132 34.285 38.8161L36.1443 36.9567L27.0432 27.8557ZM23.7789 41.8385C23.3322 42.2852 22.6081 42.2852 22.1615 41.8385C21.7148 41.3919 21.7148 40.6677 22.1615 40.2211C22.6081 39.7744 23.3323 39.7744 23.7789 40.2211C24.2256 40.6677 24.2256 41.3919 23.7789 41.8385Z" fill="#01C7A5"/>
</svg>
