<svg width="65" height="64" viewBox="0 0 65 64" fill="none" xmlns="http://www.w3.org/2000/svg">
<circle cx="32.2651" cy="32" r="32" fill="white" fill-opacity="0.08"/>
<path d="M41.0853 29.0544L40.9688 29.0129L40.5137 27.9265L40.563 27.8148C41.9418 24.6878 41.8467 24.5945 41.618 24.3678L39.7789 22.5737C39.7037 22.4991 39.5717 22.4466 39.4578 22.4466C39.3544 22.4466 39.0409 22.4466 36.3247 23.6768L36.2157 23.7257L35.0951 23.2744L35.0501 23.1629C33.7727 20 33.6419 20 33.324 20H30.7267C30.41 20 30.2658 20 29.0814 23.1684L29.0368 23.2837L27.9219 23.7382L27.8153 23.6939C25.9768 22.9187 24.9033 22.5257 24.6234 22.5257C24.5099 22.5257 24.3774 22.5766 24.3019 22.651L22.461 24.4504C22.2275 24.6807 22.1306 24.7772 23.5816 27.8389L23.6349 27.9525L23.1791 29.0377L23.0675 29.0809C19.8306 30.3318 19.8306 30.4537 19.8306 30.7796V33.3247C19.8306 33.6514 19.8306 33.7871 23.0739 34.9494L23.1899 34.9904L23.6458 36.0724L23.5968 36.183C22.2181 39.3115 22.3055 39.3961 22.5402 39.6296L24.3766 41.4262C24.4536 41.5002 24.5868 41.5531 24.7004 41.5531C24.8032 41.5531 25.1159 41.5531 27.834 40.3234L27.9429 40.2725L29.0643 40.726L29.1079 40.8382C30.386 44 30.5173 44 30.8354 44H33.4335C33.7597 44 33.895 44 35.0804 40.8295L35.1245 40.7141L36.2412 40.2627L36.3474 40.306C38.1845 41.0833 39.2574 41.4756 39.5355 41.4756C39.6481 41.4756 39.7817 41.4262 39.8585 41.3502L41.7024 39.5469C41.9343 39.3154 42.031 39.2207 40.5774 36.1618L40.5233 36.047L40.9784 34.9664L41.087 34.9238C44.3292 33.6664 44.3292 33.5438 44.3292 33.2176V30.674C44.3291 30.3473 44.3291 30.2125 41.0853 29.0544ZM32.0798 36.1278C29.7586 36.1278 27.8702 34.2755 27.8702 32.0005C27.8702 29.7253 29.7586 27.8755 32.0798 27.8755C34.4 27.8755 36.2881 29.7257 36.2881 32.0005C36.2882 34.2751 34.4001 36.1278 32.0798 36.1278Z" fill="white" fill-opacity="0.64"/>
</svg>
