<svg width="65" height="64" viewBox="0 0 65 64" fill="none" xmlns="http://www.w3.org/2000/svg">
<circle cx="32.7651" cy="32" r="32" fill="white" fill-opacity="0.12"/>
<path d="M41.5853 29.0544L41.4688 29.0129L41.0137 27.9265L41.063 27.8148C42.4418 24.6878 42.3467 24.5945 42.118 24.3678L40.2789 22.5737C40.2037 22.4991 40.0717 22.4466 39.9578 22.4466C39.8544 22.4466 39.5409 22.4466 36.8247 23.6768L36.7157 23.7257L35.5951 23.2744L35.5501 23.1629C34.2727 20 34.1419 20 33.824 20H31.2267C30.91 20 30.7658 20 29.5814 23.1684L29.5368 23.2837L28.4219 23.7382L28.3153 23.6939C26.4768 22.9187 25.4033 22.5257 25.1234 22.5257C25.0099 22.5257 24.8774 22.5766 24.8019 22.651L22.961 24.4504C22.7275 24.6807 22.6306 24.7772 24.0816 27.8389L24.1349 27.9525L23.6791 29.0377L23.5675 29.0809C20.3306 30.3318 20.3306 30.4537 20.3306 30.7796V33.3247C20.3306 33.6514 20.3306 33.7871 23.5739 34.9494L23.6899 34.9904L24.1458 36.0724L24.0968 36.183C22.7181 39.3115 22.8055 39.3961 23.0402 39.6296L24.8766 41.4262C24.9536 41.5002 25.0868 41.5531 25.2004 41.5531C25.3032 41.5531 25.6159 41.5531 28.334 40.3234L28.4429 40.2725L29.5643 40.726L29.6079 40.8382C30.886 44 31.0173 44 31.3354 44H33.9335C34.2597 44 34.395 44 35.5804 40.8295L35.6245 40.7141L36.7412 40.2627L36.8474 40.306C38.6845 41.0833 39.7574 41.4756 40.0355 41.4756C40.1481 41.4756 40.2817 41.4262 40.3585 41.3502L42.2024 39.5469C42.4343 39.3154 42.531 39.2207 41.0774 36.1618L41.0233 36.047L41.4784 34.9664L41.587 34.9238C44.8292 33.6664 44.8292 33.5438 44.8292 33.2176V30.674C44.8291 30.3473 44.8291 30.2125 41.5853 29.0544ZM32.5798 36.1278C30.2586 36.1278 28.3702 34.2755 28.3702 32.0005C28.3702 29.7253 30.2586 27.8755 32.5798 27.8755C34.9 27.8755 36.7881 29.7257 36.7881 32.0005C36.7882 34.2751 34.9001 36.1278 32.5798 36.1278Z" fill="white" fill-opacity="0.64"/>
</svg>
