<svg width="65" height="64" viewBox="0 0 65 64" fill="none" xmlns="http://www.w3.org/2000/svg">
<circle cx="32.7651" cy="32" r="32" fill="white" fill-opacity="0.12"/>
<g clip-path="url(#clip0)">
<path fill-rule="evenodd" clip-rule="evenodd" d="M25.2569 23.75C24.8819 21.8 26.3819 20 28.3319 20C30.0569 20 31.4819 21.425 31.4819 23.15V27.05C31.9319 27.05 32.3819 26.975 32.8319 26.975C33.2819 26.975 33.6569 26.975 34.1069 27.05V23.15C34.1069 21.425 35.5319 20 37.2569 20C39.2069 20 40.7069 21.8 40.4069 23.75L39.5819 28.325C42.5069 29.6 44.7569 31.85 44.7569 34.625V36.35C44.7569 38.675 43.2569 40.625 41.0819 41.9C38.9069 43.25 36.0569 44 32.8319 44C29.6069 44 26.7569 43.25 24.5819 41.9C22.4819 40.625 20.9819 38.675 20.9819 36.35V34.625C20.9819 31.85 23.1569 29.6 26.0819 28.325L25.2569 23.75ZM38.4569 28.925L39.4319 23.525C39.6569 22.175 38.6819 20.9 37.2569 20.9C36.0569 20.9 35.0819 21.875 35.0819 23.075V28.025C34.7819 27.95 34.4069 27.95 34.1069 27.95C33.6569 27.95 33.2819 27.875 32.8319 27.875C32.3819 27.875 31.9319 27.875 31.4819 27.95C31.1819 27.95 30.8069 28.025 30.5069 28.025V23.15C30.5069 21.95 29.5319 20.975 28.3319 20.975C26.9819 20.975 25.9319 22.25 26.2319 23.6L27.2069 29C24.0569 30.2 21.9569 32.3 21.9569 34.7V36.425C21.9569 40.1 26.8319 43.1 32.8319 43.1C38.8319 43.1 43.7069 40.1 43.7069 36.425V34.7C43.7819 32.225 41.6819 30.125 38.4569 28.925Z" fill="#633001"/>
<path d="M43.782 36.35C43.782 40.025 38.907 43.025 32.907 43.025C26.907 43.025 22.032 40.025 22.032 36.35V34.625H43.857V36.35H43.782Z" fill="#FEDC90"/>
<path fill-rule="evenodd" clip-rule="evenodd" d="M26.232 23.6C25.932 22.25 26.982 20.975 28.332 20.975C29.532 20.975 30.507 21.95 30.507 23.15V28.1C31.257 28.025 32.007 27.95 32.832 27.95C33.582 27.95 34.332 28.025 35.082 28.1V23.15C35.082 21.95 36.057 20.975 37.257 20.975C38.607 20.975 39.657 22.25 39.432 23.6L38.457 29C41.607 30.2 43.782 32.3 43.782 34.7C43.782 38.375 38.907 41.375 32.907 41.375C26.907 41.375 22.032 38.375 22.032 34.7C22.032 32.3 24.132 30.2 27.282 29L26.232 23.6Z" fill="#D1884F"/>
<path d="M29.8319 34.175C29.8319 35.15 29.3069 35.975 28.6319 35.975C27.9569 35.975 27.4319 35.15 27.4319 34.175C27.4319 33.2 27.9569 32.375 28.6319 32.375C29.3069 32.375 29.8319 33.2 29.8319 34.175Z" fill="#633001"/>
<path d="M38.1568 34.175C38.1568 35.15 37.6318 35.975 36.9568 35.975C36.2818 35.975 35.7568 35.15 35.7568 34.175C35.7568 33.2 36.2818 32.375 36.9568 32.375C37.6318 32.375 38.1568 33.2 38.1568 34.175Z" fill="#633001"/>
</g>
<defs>
<clipPath id="clip0">
<rect width="23.775" height="24" fill="white" transform="translate(20.9819 20)"/>
</clipPath>
</defs>
</svg>
