<svg width="65" height="64" viewBox="0 0 65 64" fill="none" xmlns="http://www.w3.org/2000/svg">
<circle cx="32.2651" cy="32" r="32" fill="white" fill-opacity="0.08"/>
<g clip-path="url(#clip0)">
<path fill-rule="evenodd" clip-rule="evenodd" d="M24.7569 23.75C24.3819 21.8 25.8819 20 27.8319 20C29.5569 20 30.9819 21.425 30.9819 23.15V27.05C31.4319 27.05 31.8819 26.975 32.3319 26.975C32.7819 26.975 33.1569 26.975 33.6069 27.05V23.15C33.6069 21.425 35.0319 20 36.7569 20C38.7069 20 40.2069 21.8 39.9069 23.75L39.0819 28.325C42.0069 29.6 44.2569 31.85 44.2569 34.625V36.35C44.2569 38.675 42.7569 40.625 40.5819 41.9C38.4069 43.25 35.5569 44 32.3319 44C29.1069 44 26.2569 43.25 24.0819 41.9C21.9819 40.625 20.4819 38.675 20.4819 36.35V34.625C20.4819 31.85 22.6569 29.6 25.5819 28.325L24.7569 23.75ZM37.9569 28.925L38.9319 23.525C39.1569 22.175 38.1819 20.9 36.7569 20.9C35.5569 20.9 34.5819 21.875 34.5819 23.075V28.025C34.2819 27.95 33.9069 27.95 33.6069 27.95C33.1569 27.95 32.7819 27.875 32.3319 27.875C31.8819 27.875 31.4319 27.875 30.9819 27.95C30.6819 27.95 30.3069 28.025 30.0069 28.025V23.15C30.0069 21.95 29.0319 20.975 27.8319 20.975C26.4819 20.975 25.4319 22.25 25.7319 23.6L26.7069 29C23.5569 30.2 21.4569 32.3 21.4569 34.7V36.425C21.4569 40.1 26.3319 43.1 32.3319 43.1C38.3319 43.1 43.2069 40.1 43.2069 36.425V34.7C43.2819 32.225 41.1819 30.125 37.9569 28.925Z" fill="#633001"/>
<path d="M43.282 36.35C43.282 40.025 38.407 43.025 32.407 43.025C26.407 43.025 21.532 40.025 21.532 36.35V34.625H43.357V36.35H43.282Z" fill="#FEDC90"/>
<path fill-rule="evenodd" clip-rule="evenodd" d="M25.732 23.6C25.432 22.25 26.482 20.975 27.832 20.975C29.032 20.975 30.007 21.95 30.007 23.15V28.1C30.757 28.025 31.507 27.95 32.332 27.95C33.082 27.95 33.832 28.025 34.582 28.1V23.15C34.582 21.95 35.557 20.975 36.757 20.975C38.107 20.975 39.157 22.25 38.932 23.6L37.957 29C41.107 30.2 43.282 32.3 43.282 34.7C43.282 38.375 38.407 41.375 32.407 41.375C26.407 41.375 21.532 38.375 21.532 34.7C21.532 32.3 23.632 30.2 26.782 29L25.732 23.6Z" fill="#D1884F"/>
<path d="M29.3319 34.175C29.3319 35.15 28.8069 35.975 28.1319 35.975C27.4569 35.975 26.9319 35.15 26.9319 34.175C26.9319 33.2 27.4569 32.375 28.1319 32.375C28.8069 32.375 29.3319 33.2 29.3319 34.175Z" fill="#633001"/>
<path d="M37.6568 34.175C37.6568 35.15 37.1318 35.975 36.4568 35.975C35.7818 35.975 35.2568 35.15 35.2568 34.175C35.2568 33.2 35.7818 32.375 36.4568 32.375C37.1318 32.375 37.6568 33.2 37.6568 34.175Z" fill="#633001"/>
</g>
<defs>
<clipPath id="clip0">
<rect width="23.775" height="24" fill="white" transform="translate(20.4819 20)"/>
</clipPath>
</defs>
</svg>
