<svg width="65" height="64" viewBox="0 0 65 64" fill="none" xmlns="http://www.w3.org/2000/svg">
<circle cx="32.4344" cy="32" r="32" fill="white" fill-opacity="0.12"/>
<path d="M41.2548 29.0544L41.1382 29.0129L40.6831 27.9265L40.7325 27.8148C42.1112 24.6878 42.0162 24.5945 41.7875 24.3678L39.9483 22.5737C39.8731 22.4991 39.7411 22.4466 39.6273 22.4466C39.5238 22.4466 39.2104 22.4466 36.4941 23.6768L36.3852 23.7257L35.2645 23.2744L35.2195 23.1629C33.9422 20 33.8113 20 33.4935 20H30.8962C30.5795 20 30.4353 20 29.2508 23.1684L29.2062 23.2837L28.0914 23.7382L27.9848 23.6939C26.1462 22.9187 25.0727 22.5257 24.7929 22.5257C24.6793 22.5257 24.5468 22.5766 24.4713 22.651L22.6304 24.4504C22.3969 24.6807 22.3 24.7772 23.751 27.8389L23.8044 27.9525L23.3485 29.0377L23.2369 29.0809C20 30.3318 20 30.4537 20 30.7796V33.3247C20 33.6514 20 33.7871 23.2434 34.9494L23.3593 34.9904L23.8152 36.0724L23.7663 36.183C22.3875 39.3115 22.4749 39.3961 22.7097 39.6296L24.546 41.4262C24.623 41.5002 24.7562 41.5531 24.8699 41.5531C24.9727 41.5531 25.2854 41.5531 28.0034 40.3234L28.1123 40.2725L29.2337 40.726L29.2773 40.8382C30.5554 44 30.6867 44 31.0048 44H33.6029C33.9291 44 34.0644 44 35.2498 40.8295L35.294 40.7141L36.4106 40.2627L36.5169 40.306C38.3539 41.0833 39.4269 41.4756 39.7049 41.4756C39.8175 41.4756 39.9512 41.4262 40.028 41.3502L41.8718 39.5469C42.1037 39.3154 42.2004 39.2207 40.7468 36.1618L40.6928 36.047L41.1478 34.9664L41.2565 34.9238C44.4986 33.6664 44.4986 33.5438 44.4986 33.2176V30.674C44.4985 30.3473 44.4985 30.2125 41.2548 29.0544ZM32.2492 36.1278C29.928 36.1278 28.0396 34.2755 28.0396 32.0005C28.0396 29.7253 29.9281 27.8755 32.2492 27.8755C34.5695 27.8755 36.4575 29.7257 36.4575 32.0005C36.4576 34.2751 34.5695 36.1278 32.2492 36.1278Z" fill="#046EF0"/>
</svg>
