<svg width="65" height="64" viewBox="0 0 65 64" fill="none" xmlns="http://www.w3.org/2000/svg">
<circle cx="32.5188" cy="32" r="32" fill="white" fill-opacity="0.08"/>
<path d="M33.6701 35.9426C33.5805 35.8444 33.4671 35.771 33.3499 35.7099C33.0948 35.5768 32.8158 35.4961 32.5387 35.4233V37.5701C32.9884 37.5193 33.5047 37.3561 33.7408 36.9363C33.8535 36.7358 33.8759 36.4894 33.83 36.2661C33.8051 36.1452 33.7537 36.0341 33.6701 35.9426Z" fill="white" fill-opacity="0.64"/>
<path d="M33.7384 36.9418C33.7396 36.9398 33.7403 36.9385 33.7416 36.9363C33.7405 36.9381 33.7395 36.9399 33.7384 36.9418Z" fill="white" fill-opacity="0.64"/>
<path d="M30.4294 32.5106C30.3521 32.6235 30.3036 32.7517 30.2902 32.8881C30.2769 33.0247 30.2844 33.1766 30.3363 33.3052C30.3857 33.4278 30.4892 33.5183 30.596 33.5911C30.7159 33.6727 30.8478 33.7364 30.9821 33.7903C31.0948 33.8357 31.2215 33.8791 31.3581 33.921V31.9783C31.013 32.0519 30.6359 32.2091 30.4294 32.5106Z" fill="white" fill-opacity="0.64"/>
<path d="M33.7498 36.9204C33.747 36.9255 33.744 36.9307 33.741 36.9362C33.7445 36.9298 33.7472 36.9251 33.7498 36.9204Z" fill="white" fill-opacity="0.64"/>
<path d="M33.761 36.9007C33.762 36.8989 33.7621 36.8987 33.761 36.9007V36.9007Z" fill="white" fill-opacity="0.64"/>
<path d="M33.2951 25.222C35.1208 23.6883 36.3408 20.2331 35.59 20.082C34.5925 19.8811 32.4263 20.7619 31.3793 20.9171C29.8942 21.0964 28.2768 19.3068 27.369 20.3043C26.6308 21.1154 27.8982 24.065 29.881 25.35C23.9653 28.2574 15.6505 42.8531 30.1562 43.9122C50.2274 45.3776 40.177 28.0553 33.2951 25.222ZM35.0188 36.7329C34.9571 37.3019 34.6555 37.8165 34.2048 38.1658C33.7288 38.5347 33.1318 38.7063 32.5387 38.7543V39.383C32.5387 39.5513 32.4652 39.714 32.3393 39.8253C32.1662 39.9785 31.9119 40.0163 31.7018 39.9195C31.4943 39.824 31.3581 39.6113 31.3581 39.383V38.6959C31.2564 38.6766 31.1554 38.6536 31.0556 38.6262C30.5013 38.4739 29.9871 38.177 29.6115 37.7378C29.4244 37.5188 29.2718 37.2704 29.1664 37.0022C29.1388 36.9321 29.1142 36.8607 29.0927 36.7886C29.0732 36.7232 29.0531 36.6568 29.0462 36.5887C29.0345 36.4744 29.0571 36.3579 29.1104 36.2561C29.2198 36.0468 29.4505 35.9203 29.686 35.9413C29.9177 35.9619 30.1209 36.1227 30.1938 36.3437C30.2163 36.4117 30.2316 36.4815 30.2568 36.5488C30.2818 36.6156 30.312 36.6806 30.3475 36.7425C30.4177 36.8644 30.5056 36.9768 30.6068 37.0743C30.8154 37.2753 31.0811 37.4059 31.3581 37.4836V35.1478C30.8164 35.0076 30.2574 34.8265 29.8101 34.4787C29.5927 34.3096 29.4083 34.0995 29.2875 33.8509C29.16 33.5884 29.1072 33.2961 29.1051 33.0057C29.1029 32.7109 29.1589 32.4186 29.2819 32.15C29.3971 31.8984 29.563 31.6726 29.7663 31.4854C30.2012 31.0852 30.7788 30.8619 31.3581 30.7799V30.7285V30.1273C31.3581 29.9591 31.4316 29.7963 31.5575 29.685C31.7307 29.5319 31.9849 29.494 32.1951 29.5908C32.4024 29.6863 32.5388 29.899 32.5388 30.1273V30.7285V30.7764C32.616 30.7861 32.6929 30.7977 32.7695 30.8116C33.3384 30.9146 33.8949 31.1495 34.3109 31.5596C34.508 31.7539 34.6693 31.9854 34.7828 32.2378C34.8145 32.3083 34.8422 32.3803 34.8662 32.4538C34.8886 32.5223 34.911 32.5928 34.9217 32.6643C34.9388 32.7785 34.9214 32.8964 34.8725 33.0008C34.7724 33.2147 34.548 33.3509 34.3119 33.3408C34.0799 33.3307 33.8697 33.1796 33.7867 32.9628C33.7619 32.8983 33.7495 32.83 33.7243 32.7657C33.6988 32.7006 33.6659 32.6385 33.6278 32.5798C33.554 32.4657 33.4583 32.3679 33.349 32.2873C33.1124 32.1126 32.8254 32.0215 32.5386 31.9707V34.206C32.8794 34.2876 33.2205 34.3766 33.547 34.5053C34.0406 34.7 34.5082 34.9984 34.7776 35.4689C34.7358 35.3956 34.6951 35.3241 34.779 35.4713C34.8613 35.6159 34.822 35.547 34.7807 35.4745C34.995 35.8522 35.0654 36.3038 35.0188 36.7329Z" fill="white" fill-opacity="0.64"/>
<path d="M33.7322 36.9515C33.7288 36.9576 33.7258 36.9631 33.7234 36.9672C33.7254 36.9636 33.7285 36.9583 33.7322 36.9515Z" fill="white" fill-opacity="0.64"/>
</svg>
