<svg width="65" height="64" viewBox="0 0 65 64" fill="none" xmlns="http://www.w3.org/2000/svg">
<circle cx="32.5188" cy="32" r="32" fill="white" fill-opacity="0.08"/>
<path d="M43.8474 29.3381C44.1634 29.0222 44.1634 28.5098 43.8474 28.1938L42.633 26.9794C42.3584 26.7048 41.9272 26.6641 41.606 26.8823L39.0526 28.6178L40.7775 26.0471C40.993 25.7261 40.9512 25.2975 40.6777 25.0241L38.0436 22.3899C37.8004 22.1468 37.4301 22.0838 37.1204 22.2331L36.6649 22.4524L36.883 21.9685C37.0213 21.6618 36.9553 21.3016 36.7175 21.0637L35.8906 20.237C35.5746 19.921 35.0623 19.921 34.7463 20.237L28.3235 26.6597L37.4247 35.7609L43.8474 29.3381Z" fill="#01C7A5"/>
<path d="M27.1275 27.8557L25.2682 29.7149C25.1165 29.8667 25.0312 30.0725 25.0312 30.2871C25.0312 30.5017 25.1164 30.7075 25.2682 30.8592L27.0319 32.6229C27.3717 32.9627 27.5365 33.4317 27.4841 33.9095C27.4317 34.387 27.1689 34.8091 26.7631 35.0679C21.5806 38.3714 21.0975 38.8545 20.9388 39.0133C19.7995 40.1525 19.7995 42.0062 20.9388 43.1455C22.0792 44.2859 23.933 44.2837 25.071 43.1455C25.2299 42.9868 25.7131 42.5035 29.0164 37.3213C29.2745 36.9164 29.6965 36.6542 30.1742 36.6017C30.6534 36.5494 31.1223 36.7134 31.4613 37.0524L33.225 38.8161C33.541 39.132 34.0534 39.132 34.3693 38.8161L36.2287 36.9567L27.1275 27.8557ZM23.8633 41.8385C23.4166 42.2852 22.6924 42.2852 22.2458 41.8385C21.7991 41.3919 21.7991 40.6677 22.2458 40.2211C22.6925 39.7744 23.4166 39.7744 23.8633 40.2211C24.3099 40.6677 24.3099 41.3919 23.8633 41.8385Z" fill="#01C7A5"/>
</svg>
