<svg width="65" height="64" viewBox="0 0 65 64" fill="none" xmlns="http://www.w3.org/2000/svg">
<circle cx="32.4344" cy="32" r="32" fill="white" fill-opacity="0.12"/>
<path d="M33.5858 35.9426C33.4962 35.8444 33.3828 35.771 33.2656 35.7099C33.0104 35.5768 32.7314 35.4961 32.4543 35.4233V37.5701C32.904 37.5193 33.4203 37.3561 33.6564 36.9363C33.7692 36.7358 33.7916 36.4894 33.7457 36.2661C33.7208 36.1452 33.6693 36.0341 33.5858 35.9426Z" fill="white" fill-opacity="0.8"/>
<path d="M33.6541 36.9418C33.6553 36.9398 33.6559 36.9385 33.6572 36.9363C33.6562 36.9381 33.6551 36.9399 33.6541 36.9418Z" fill="white" fill-opacity="0.8"/>
<path d="M30.3451 32.5106C30.2678 32.6235 30.2193 32.7517 30.2059 32.8881C30.1925 33.0247 30.2 33.1766 30.2519 33.3052C30.3013 33.4278 30.4048 33.5183 30.5117 33.5911C30.6316 33.6727 30.7634 33.7364 30.8977 33.7903C31.0104 33.8357 31.1371 33.8791 31.2737 33.921V31.9783C30.9286 32.0519 30.5516 32.2091 30.3451 32.5106Z" fill="white" fill-opacity="0.8"/>
<path d="M33.6655 36.9204C33.6627 36.9255 33.6596 36.9307 33.6566 36.9362C33.6601 36.9298 33.6629 36.9251 33.6655 36.9204Z" fill="white" fill-opacity="0.8"/>
<path d="M33.6766 36.9007C33.6776 36.8989 33.6778 36.8987 33.6766 36.9007V36.9007Z" fill="white" fill-opacity="0.8"/>
<path d="M33.2108 25.222C35.0365 23.6883 36.2564 20.2331 35.5057 20.082C34.5081 19.8811 32.3419 20.7619 31.2949 20.9171C29.8099 21.0964 28.1925 19.3068 27.2846 20.3043C26.5465 21.1154 27.8138 24.065 29.7967 25.35C23.881 28.2574 15.5661 42.8531 30.0719 43.9122C50.143 45.3776 40.0927 28.0553 33.2108 25.222ZM34.9345 36.7329C34.8728 37.3019 34.5712 37.8165 34.1204 38.1658C33.6445 38.5347 33.0475 38.7063 32.4544 38.7543V39.383C32.4544 39.5513 32.3809 39.714 32.255 39.8253C32.0819 39.9785 31.8275 40.0163 31.6174 39.9195C31.41 39.824 31.2737 39.6113 31.2737 39.383V38.6959C31.172 38.6766 31.071 38.6536 30.9713 38.6262C30.4169 38.4739 29.9027 38.177 29.5271 37.7378C29.34 37.5188 29.1875 37.2704 29.082 37.0022C29.0544 36.9321 29.0299 36.8607 29.0084 36.7886C28.9889 36.7232 28.9688 36.6568 28.9618 36.5887C28.9501 36.4744 28.9728 36.3579 29.026 36.2561C29.1355 36.0468 29.3661 35.9203 29.6016 35.9413C29.8334 35.9619 30.0365 36.1227 30.1095 36.3437C30.132 36.4117 30.1472 36.4815 30.1724 36.5488C30.1975 36.6156 30.2277 36.6806 30.2632 36.7425C30.3333 36.8644 30.4212 36.9768 30.5224 37.0743C30.731 37.2753 30.9967 37.4059 31.2737 37.4836V35.1478C30.7321 35.0076 30.173 34.8265 29.7257 34.4787C29.5084 34.3096 29.3239 34.0995 29.2031 33.8509C29.0757 33.5884 29.0229 33.2961 29.0207 33.0057C29.0185 32.7109 29.0746 32.4186 29.1975 32.15C29.3128 31.8984 29.4786 31.6726 29.682 31.4854C30.1168 31.0852 30.6944 30.8619 31.2738 30.7799V30.7285V30.1273C31.2738 29.9591 31.3473 29.7963 31.4732 29.685C31.6463 29.5319 31.9006 29.494 32.1107 29.5908C32.3181 29.6863 32.4544 29.899 32.4544 30.1273V30.7285V30.7764C32.5316 30.7861 32.6086 30.7977 32.6852 30.8116C33.2541 30.9146 33.8105 31.1495 34.2265 31.5596C34.4236 31.7539 34.585 31.9854 34.6984 32.2378C34.7301 32.3083 34.7578 32.3803 34.7818 32.4538C34.8042 32.5223 34.8267 32.5928 34.8374 32.6643C34.8544 32.7785 34.837 32.8964 34.7882 33.0008C34.6881 33.2147 34.4637 33.3509 34.2276 33.3408C33.9956 33.3307 33.7854 33.1796 33.7023 32.9628C33.6776 32.8983 33.6652 32.83 33.64 32.7657C33.6145 32.7006 33.5815 32.6385 33.5435 32.5798C33.4696 32.4657 33.3739 32.3679 33.2646 32.2873C33.028 32.1126 32.741 32.0215 32.4542 31.9707V34.206C32.7951 34.2876 33.1362 34.3766 33.4627 34.5053C33.9562 34.7 34.4239 34.9984 34.6932 35.4689C34.6514 35.3956 34.6108 35.3241 34.6946 35.4713C34.777 35.6159 34.7377 35.547 34.6963 35.4745C34.9107 35.8522 34.9811 36.3038 34.9345 36.7329Z" fill="white" fill-opacity="0.8"/>
<path d="M33.6478 36.9515C33.6444 36.9576 33.6414 36.9631 33.639 36.9672C33.6411 36.9636 33.6441 36.9583 33.6478 36.9515Z" fill="white" fill-opacity="0.8"/>
</svg>
