<svg width="65" height="64" viewBox="0 0 65 64" fill="none" xmlns="http://www.w3.org/2000/svg">
<circle cx="32.2651" cy="32" r="32" fill="white" fill-opacity="0.08"/>
<path d="M42.2761 23.4341V40.5658C42.2761 42.4624 37.898 44 32.4974 44C27.0968 44 22.7188 42.4624 22.7188 40.5658V23.4341H42.2761Z" fill="#1AADDE"/>
<path d="M39.8617 23.4341V40.5658C39.8617 42.3189 36.1212 43.765 31.2903 43.9739C31.6859 43.991 32.0887 44 32.4975 44C37.8981 44 42.2762 42.4624 42.2762 40.5658V23.4341H39.8617Z" fill="#0693C2"/>
<path d="M32.4974 26.8683C37.8981 26.8683 42.2761 25.3308 42.2761 23.4342C42.2761 21.5375 37.8981 20 32.4974 20C27.0968 20 22.7188 21.5375 22.7188 23.4342C22.7188 25.3308 27.0968 26.8683 32.4974 26.8683Z" fill="#69D0F2"/>
</svg>
