<svg width="65" height="64" viewBox="0 0 65 64" fill="none" xmlns="http://www.w3.org/2000/svg">
<circle cx="32.7651" cy="32" r="32" fill="white" fill-opacity="0.12"/>
<path d="M42.7761 23.4341V40.5658C42.7761 42.4624 38.398 44 32.9974 44C27.5968 44 23.2188 42.4624 23.2188 40.5658V23.4341H42.7761Z" fill="#1AADDE"/>
<path d="M40.3617 23.4341V40.5658C40.3617 42.3189 36.6212 43.765 31.7903 43.9739C32.1859 43.991 32.5887 44 32.9975 44C38.3981 44 42.7762 42.4624 42.7762 40.5658V23.4341H40.3617Z" fill="#0693C2"/>
<path d="M32.9974 26.8683C38.3981 26.8683 42.7761 25.3308 42.7761 23.4342C42.7761 21.5375 38.3981 20 32.9974 20C27.5968 20 23.2188 21.5375 23.2188 23.4342C23.2188 25.3308 27.5968 26.8683 32.9974 26.8683Z" fill="#69D0F2"/>
</svg>
