<svg width="65" height="64" viewBox="0 0 65 64" fill="none" xmlns="http://www.w3.org/2000/svg">
<circle cx="32.5188" cy="32" r="32" fill="white" fill-opacity="0.08"/>
<path d="M41.3391 29.0544L41.2226 29.0129L40.7674 27.9265L40.8168 27.8148C42.1956 24.6878 42.1005 24.5945 41.8718 24.3678L40.0327 22.5737C39.9575 22.4991 39.8254 22.4466 39.7116 22.4466C39.6082 22.4466 39.2947 22.4466 36.5784 23.6768L36.4695 23.7257L35.3489 23.2744L35.3039 23.1629C34.0265 20 33.8957 20 33.5778 20H30.9805C30.6638 20 30.5196 20 29.3351 23.1684L29.2906 23.2837L28.1757 23.7382L28.0691 23.6939C26.2306 22.9187 25.1571 22.5257 24.8772 22.5257C24.7637 22.5257 24.6312 22.5766 24.5556 22.651L22.7148 24.4504C22.4813 24.6807 22.3844 24.7772 23.8354 27.8389L23.8887 27.9525L23.4329 29.0377L23.3213 29.0809C20.0844 30.3318 20.0844 30.4537 20.0844 30.7796V33.3247C20.0844 33.6514 20.0844 33.7871 23.3277 34.9494L23.4437 34.9904L23.8996 36.0724L23.8506 36.183C22.4718 39.3115 22.5593 39.3961 22.794 39.6296L24.6304 41.4262C24.7074 41.5002 24.8406 41.5531 24.9542 41.5531C25.057 41.5531 25.3697 41.5531 28.0878 40.3234L28.1966 40.2725L29.318 40.726L29.3616 40.8382C30.6398 44 30.7711 44 31.0892 44H33.6873C34.0135 44 34.1487 44 35.3341 40.8295L35.3783 40.7141L36.495 40.2627L36.6012 40.306C38.4383 41.0833 39.5112 41.4756 39.7893 41.4756C39.9018 41.4756 40.0355 41.4262 40.1123 41.3502L41.9562 39.5469C42.1881 39.3154 42.2848 39.2207 40.8312 36.1618L40.7771 36.047L41.2322 34.9664L41.3408 34.9238C44.5829 33.6664 44.5829 33.5438 44.5829 33.2176V30.674C44.5829 30.3473 44.5829 30.2125 41.3391 29.0544ZM32.3336 36.1278C30.0123 36.1278 28.124 34.2755 28.124 32.0005C28.124 29.7253 30.0124 27.8755 32.3336 27.8755C34.6538 27.8755 36.5419 29.7257 36.5419 32.0005C36.5419 34.2751 34.6539 36.1278 32.3336 36.1278Z" fill="white" fill-opacity="0.64"/>
</svg>
