<svg width="250" height="52" viewBox="0 0 250 52" fill="none" xmlns="http://www.w3.org/2000/svg">
<path d="M10.7814 44.2415V15.6355L14.1628 17.3629V44.2612L10.7814 44.2415ZM22.3249 50.4601V22.0812L25.7063 22.1405V50.4601H22.3249ZM0.977173 39.0888V13.079L4.37804 11.4305V38.3288L0.977173 39.0888ZM23.3719 25.2103L1.39499 14.5103L5.34971 12.6743L24.8391 22.1109L23.3816 25.2103H23.3719ZM45.288 16.0205L22.665 3.13895L24.0156 0L46.9423 13.0197L45.2977 16.0205H45.288ZM24.1322 52L0.977173 39.1481L2.6193 36.1448L25.6043 48.9104L24.1322 52ZM3.61041 15.5171L0.977173 13.079L24.0156 0.0592255L25.6237 3.13648L3.61041 15.5171ZM43.6045 38.9605V14.2141L46.986 13.0296V38.9704L43.6045 38.9605ZM24.2342 39.1604L22.6795 36.1103L44.4985 24.6403L46.0532 27.6929L24.2342 39.1703V39.1604ZM23.5055 25.7063L22.0479 22.6069L44.3965 11.697L45.854 14.7965L23.5055 25.7063ZM24.1346 51.9901L22.6552 48.8981L44.7778 36.246L46.9884 38.9013L24.1346 51.9803V51.9901Z" fill="url(#paint0_linear)"/>
<path d="M79.7885 14.6V18.12H73.4845V37H69.8045V18.12H63.4685V14.6H79.7885ZM95.6938 25.384C96.6751 25.896 97.4431 26.6 97.9978 27.496C98.5524 28.392 98.8298 29.4267 98.8298 30.6C98.8298 32.4347 98.1791 33.96 96.8778 35.176C95.5764 36.392 93.9871 37 92.1098 37H82.5098V14.6H91.4058C93.2404 14.6 94.7871 15.1973 96.0458 16.392C97.3258 17.5653 97.9658 19.0373 97.9658 20.808C97.9658 22.7493 97.2084 24.2747 95.6938 25.384ZM91.4058 18.056H86.1898V23.944H91.4058C92.2164 23.944 92.8991 23.6667 93.4538 23.112C94.0084 22.536 94.2858 21.832 94.2858 21C94.2858 20.168 94.0084 19.4747 93.4538 18.92C92.8991 18.344 92.2164 18.056 91.4058 18.056ZM92.1098 33.544C92.9631 33.544 93.6778 33.2453 94.2538 32.648C94.8511 32.0293 95.1498 31.2827 95.1498 30.408C95.1498 29.5333 94.8511 28.7973 94.2538 28.2C93.6778 27.5813 92.9631 27.272 92.1098 27.272H86.1898V33.544H92.1098ZM112.633 37.416C109.262 37.416 106.468 36.3067 104.249 34.088C102.03 31.848 100.921 29.0853 100.921 25.8C100.921 22.5147 102.03 19.7627 104.249 17.544C106.468 15.304 109.262 14.184 112.633 14.184C114.66 14.184 116.526 14.664 118.233 15.624C119.961 16.584 121.305 17.8853 122.265 19.528L119.065 21.384C118.468 20.2747 117.593 19.4 116.441 18.76C115.31 18.0987 114.041 17.768 112.633 17.768C110.244 17.768 108.302 18.5253 106.809 20.04C105.337 21.5547 104.601 23.4747 104.601 25.8C104.601 28.1253 105.337 30.0453 106.809 31.56C108.302 33.0747 110.244 33.832 112.633 33.832C114.041 33.832 115.321 33.512 116.473 32.872C117.625 32.2107 118.489 31.3253 119.065 30.216L122.265 32.04C121.326 33.6827 119.993 34.9947 118.265 35.976C116.558 36.936 114.681 37.416 112.633 37.416ZM135.758 37.416C132.387 37.416 129.593 36.3067 127.374 34.088C125.155 31.848 124.046 29.0853 124.046 25.8C124.046 22.5147 125.155 19.7627 127.374 17.544C129.593 15.304 132.387 14.184 135.758 14.184C137.785 14.184 139.651 14.664 141.358 15.624C143.086 16.584 144.43 17.8853 145.39 19.528L142.19 21.384C141.593 20.2747 140.718 19.4 139.566 18.76C138.435 18.0987 137.166 17.768 135.758 17.768C133.369 17.768 131.427 18.5253 129.934 20.04C128.462 21.5547 127.726 23.4747 127.726 25.8C127.726 28.1253 128.462 30.0453 129.934 31.56C131.427 33.0747 133.369 33.832 135.758 33.832C137.166 33.832 138.446 33.512 139.598 32.872C140.75 32.2107 141.614 31.3253 142.19 30.216L145.39 32.04C144.451 33.6827 143.118 34.9947 141.39 35.976C139.683 36.936 137.806 37.416 135.758 37.416ZM161.34 37L155.004 14.6H158.876L163.58 32.104L168.668 14.6H172.06L177.116 32.104L181.82 14.6H185.692L179.356 37H175.1L170.364 20.648L165.596 37H161.34ZM199.114 21H202.57V37H199.114V34.696C197.813 36.5093 195.946 37.416 193.514 37.416C191.317 37.416 189.439 36.6053 187.882 34.984C186.325 33.3413 185.546 31.3467 185.546 29C185.546 26.632 186.325 24.6373 187.882 23.016C189.439 21.3947 191.317 20.584 193.514 20.584C195.946 20.584 197.813 21.48 199.114 23.272V21ZM190.442 32.68C191.402 33.64 192.607 34.12 194.058 34.12C195.509 34.12 196.714 33.64 197.674 32.68C198.634 31.6987 199.114 30.472 199.114 29C199.114 27.528 198.634 26.312 197.674 25.352C196.714 24.3707 195.509 23.88 194.058 23.88C192.607 23.88 191.402 24.3707 190.442 25.352C189.482 26.312 189.002 27.528 189.002 29C189.002 30.472 189.482 31.6987 190.442 32.68ZM206.598 37V13.64H210.054V37H206.598ZM214.067 37V13.64H217.523V37H214.067ZM224.256 30.472C224.512 31.688 225.098 32.6267 226.016 33.288C226.933 33.928 228.053 34.248 229.376 34.248C231.21 34.248 232.586 33.5867 233.504 32.264L236.352 33.928C234.773 36.2533 232.437 37.416 229.344 37.416C226.741 37.416 224.64 36.6267 223.04 35.048C221.44 33.448 220.64 31.432 220.64 29C220.64 26.6107 221.429 24.616 223.008 23.016C224.586 21.3947 226.613 20.584 229.088 20.584C231.434 20.584 233.354 21.4053 234.848 23.048C236.362 24.6907 237.12 26.6853 237.12 29.032C237.12 29.3947 237.077 29.8747 236.992 30.472H224.256ZM224.224 27.656H233.632C233.397 26.3547 232.853 25.3733 232 24.712C231.168 24.0507 230.186 23.72 229.056 23.72C227.776 23.72 226.709 24.072 225.856 24.776C225.002 25.48 224.458 26.44 224.224 27.656ZM248.589 24.328H244.621V32.008C244.621 32.6693 244.77 33.1493 245.069 33.448C245.367 33.7253 245.805 33.8853 246.381 33.928C246.978 33.9493 247.714 33.9387 248.589 33.896V37C245.943 37.32 244.045 37.096 242.893 36.328C241.741 35.5387 241.165 34.0987 241.165 32.008V24.328H238.221V21H241.165V17.544L244.621 16.52V21H248.589V24.328Z" fill="white"/>
<defs>
<linearGradient id="paint0_linear" x1="0.977173" y1="0" x2="53.9374" y2="8.45061" gradientUnits="userSpaceOnUse">
<stop stop-color="#0066FF"/>
<stop offset="1" stop-color="#2CE0C5"/>
</linearGradient>
</defs>
</svg>
