<svg width="245" height="52" viewBox="0 0 245 52" fill="none" xmlns="http://www.w3.org/2000/svg">
<path d="M10.5637 44.2415V15.6355L13.9451 17.3629V44.2612L10.5637 44.2415ZM22.1072 50.4601V22.0812L25.4886 22.1405V50.4601H22.1072ZM0.759521 39.0888V13.079L4.16038 11.4305V38.3288L0.759521 39.0888ZM23.1542 25.2103L1.17734 14.5103L5.13206 12.6743L24.6214 22.1109L23.1639 25.2103H23.1542ZM45.0703 16.0205L22.4473 3.13895L23.7979 0L46.7246 13.0197L45.08 16.0205H45.0703ZM23.9145 52L0.759521 39.1481L2.40165 36.1448L25.3866 48.9104L23.9145 52ZM3.39276 15.5171L0.759521 13.079L23.7979 0.0592255L25.4061 3.13648L3.39276 15.5171ZM43.3869 38.9605V14.2141L46.7683 13.0296V38.9704L43.3869 38.9605ZM24.0166 39.1604L22.4619 36.1103L44.2808 24.6403L45.8355 27.6929L24.0166 39.1703V39.1604ZM23.2878 25.7063L21.8303 22.6069L44.1788 11.697L45.6363 14.7965L23.2878 25.7063ZM23.917 51.9901L22.4376 48.8981L44.5602 36.246L46.7708 38.9013L23.917 51.9803V51.9901Z" fill="url(#paint0_linear)"/>
<path d="M62.9628 18.76V14.6H79.6348V18.76H73.5868V37H68.9788V18.76H62.9628ZM98.554 30.6C98.554 32.072 98.202 33.288 97.498 34.248C96.794 35.1867 95.8127 35.88 94.554 36.328C93.2953 36.776 91.834 37 90.17 37H82.234V14.6H89.722C91.194 14.6 92.4953 14.8133 93.626 15.24C94.7567 15.6453 95.642 16.264 96.282 17.096C96.9433 17.928 97.274 18.984 97.274 20.264C97.274 21.3733 96.9753 22.3227 96.378 23.112C95.7807 23.88 94.97 24.4773 93.946 24.904C95.2687 25.3093 96.3673 25.9813 97.242 26.92C98.1167 27.8373 98.554 29.064 98.554 30.6ZM89.306 18.248H86.842V23.56H89.306C90.3087 23.56 91.098 23.3253 91.674 22.856C92.25 22.3653 92.538 21.704 92.538 20.872C92.538 20.04 92.25 19.4 91.674 18.952C91.098 18.4827 90.3087 18.248 89.306 18.248ZM86.842 33.352H89.786C90.938 33.352 91.898 33.0853 92.666 32.552C93.434 32.0187 93.818 31.176 93.818 30.024C93.818 28.936 93.434 28.1467 92.666 27.656C91.898 27.144 90.938 26.888 89.786 26.888H86.842V33.352ZM106.165 25.8C106.165 27.272 106.495 28.552 107.157 29.64C107.818 30.728 108.693 31.5707 109.781 32.168C110.869 32.744 112.053 33.032 113.333 33.032C114.911 33.032 116.255 32.7333 117.365 32.136C118.495 31.5387 119.434 30.8133 120.181 29.96V35.144C119.263 35.8693 118.271 36.4347 117.205 36.84C116.138 37.2453 114.783 37.448 113.141 37.448C111.413 37.448 109.813 37.1707 108.341 36.616C106.89 36.04 105.631 35.24 104.565 34.216C103.498 33.192 102.666 31.9653 102.069 30.536C101.471 29.1067 101.173 27.528 101.173 25.8C101.173 24.072 101.471 22.4933 102.069 21.064C102.666 19.6347 103.498 18.408 104.565 17.384C105.631 16.36 106.89 15.5707 108.341 15.016C109.813 14.44 111.413 14.152 113.141 14.152C114.783 14.152 116.138 14.3547 117.205 14.76C118.271 15.144 119.263 15.7093 120.181 16.456V21.64C119.434 20.7653 118.495 20.04 117.365 19.464C116.255 18.8667 114.911 18.568 113.333 18.568C112.053 18.568 110.869 18.8667 109.781 19.464C108.693 20.04 107.818 20.872 107.157 21.96C106.495 23.0267 106.165 24.3067 106.165 25.8ZM128.415 25.8C128.415 27.272 128.745 28.552 129.407 29.64C130.068 30.728 130.943 31.5707 132.031 32.168C133.119 32.744 134.303 33.032 135.583 33.032C137.161 33.032 138.505 32.7333 139.615 32.136C140.745 31.5387 141.684 30.8133 142.431 29.96V35.144C141.513 35.8693 140.521 36.4347 139.455 36.84C138.388 37.2453 137.033 37.448 135.391 37.448C133.663 37.448 132.063 37.1707 130.591 36.616C129.14 36.04 127.881 35.24 126.815 34.216C125.748 33.192 124.916 31.9653 124.319 30.536C123.721 29.1067 123.423 27.528 123.423 25.8C123.423 24.072 123.721 22.4933 124.319 21.064C124.916 19.6347 125.748 18.408 126.815 17.384C127.881 16.36 129.14 15.5707 130.591 15.016C132.063 14.44 133.663 14.152 135.391 14.152C137.033 14.152 138.388 14.3547 139.455 14.76C140.521 15.144 141.513 15.7093 142.431 16.456V21.64C141.684 20.7653 140.745 20.04 139.615 19.464C138.505 18.8667 137.161 18.568 135.583 18.568C134.303 18.568 133.119 18.8667 132.031 19.464C130.943 20.04 130.068 20.872 129.407 21.96C128.745 23.0267 128.415 24.3067 128.415 25.8ZM177.091 28.488L181.891 14.6H187.267L177.859 38.248L170.787 23.624L163.715 38.248L154.307 14.6H159.715L164.547 28.488L170.787 13.48L177.091 28.488ZM187.663 26.44L186.127 23.624C186.895 23.2187 187.833 22.8347 188.943 22.472C190.052 22.088 191.289 21.896 192.655 21.896C193.913 21.896 195.033 22.0773 196.015 22.44C196.996 22.8027 197.764 23.336 198.319 24.04C198.895 24.7227 199.183 25.5653 199.183 26.568V37H195.151V34.984C194.703 35.752 194.02 36.3387 193.103 36.744C192.207 37.128 191.268 37.32 190.287 37.32C189.348 37.32 188.484 37.1387 187.695 36.776C186.905 36.4133 186.276 35.8907 185.807 35.208C185.337 34.504 185.103 33.6507 185.103 32.648C185.103 31.24 185.604 30.12 186.607 29.288C187.609 28.4347 189.028 28.008 190.863 28.008C191.801 28.008 192.623 28.104 193.327 28.296C194.052 28.488 194.66 28.712 195.151 28.968V27.464C195.151 26.6533 194.884 26.0667 194.351 25.704C193.839 25.3413 193.124 25.16 192.207 25.16C191.183 25.16 190.244 25.32 189.391 25.64C188.537 25.96 187.961 26.2267 187.663 26.44ZM189.295 32.392C189.295 33.0533 189.519 33.5653 189.967 33.928C190.415 34.2693 190.991 34.44 191.695 34.44C192.633 34.44 193.444 34.1627 194.127 33.608C194.809 33.032 195.151 32.2 195.151 31.112C194.191 30.6853 193.145 30.472 192.015 30.472C191.055 30.472 190.361 30.6427 189.935 30.984C189.508 31.304 189.295 31.7733 189.295 32.392ZM203.006 12.04H207.166V37H203.006V12.04ZM211.256 12.04H215.416V37H211.256V12.04ZM226.482 37.32C224.861 37.32 223.453 37.0107 222.258 36.392C221.064 35.752 220.136 34.856 219.474 33.704C218.834 32.552 218.514 31.1973 218.514 29.64C218.514 27.2933 219.229 25.4267 220.658 24.04C222.088 22.6533 224.029 21.96 226.482 21.96C228.914 21.96 230.802 22.6213 232.146 23.944C233.49 25.2453 234.162 27.08 234.162 29.448C234.162 29.6613 234.152 29.864 234.13 30.056C234.109 30.248 234.098 30.408 234.098 30.536H222.738C222.866 31.688 223.25 32.584 223.89 33.224C224.552 33.8427 225.416 34.152 226.482 34.152C228.296 34.152 229.618 33.4373 230.45 32.008L234.098 33.16C232.562 35.9333 230.024 37.32 226.482 37.32ZM226.418 24.904C224.413 24.904 223.218 25.9387 222.834 28.008H229.682C229.597 27.0693 229.256 26.3227 228.658 25.768C228.082 25.192 227.336 24.904 226.418 24.904ZM235.368 22.28H237.896V17.16H241.928V22.28H244.488V25.8H241.928V37H237.896V25.8H235.368V22.28Z" fill="white"/>
<defs>
<linearGradient id="paint0_linear" x1="0.759521" y1="0" x2="53.7197" y2="8.45061" gradientUnits="userSpaceOnUse">
<stop stop-color="#0066FF"/>
<stop offset="1" stop-color="#2CE0C5"/>
</linearGradient>
</defs>
</svg>
